# xmcd
#
# Track frame offsets: 
#        150
#        13847
#        39154
#        62410
#        102513
#        134021
#        155277
#        184689
#        207688
#        228336
#        251704
#        274461
#        299753
#
# Disc length: 4243 seconds
#
# Revision: 0
# Processed by: cddbd v1.5.2PL0 Copyright (c) Steve Scherf et al.
# Submitted via: ExactAudioCopy v0.95b4
#
DISCID=c810910d
DTITLE=INKA'S SPIRIT - CHAMAN  VOL. II
DYEAR=2007
DGENRE=Native American
TTITLE0=Great spirit
TTITLE1=Waylluna kusun
TTITLE2=Shaman's call
TTITLE3=S earth drums
TTITLE4=Tar-cheney-nabana
TTITLE5=Dance
TTITLE6=wayrapa muspuywin
TTITLE7=Front the andes to the apaches
TTITLE8=Dances of the wolf
TTITLE9=Spirit
TTITLE10=Medicine man's other room
TTITLE11=Azt leman sumic sacred moutain
TTITLE12=Blue sky
EXTD=
EXTT0=
EXTT1=
EXTT2=
EXTT3=
EXTT4=
EXTT5=
EXTT6=
EXTT7=
EXTT8=
EXTT9=
EXTT10=
EXTT11=
EXTT12=
PLAYORDER=
